<svg width="44" height="58" viewBox="0 0 44 58" fill="none" xmlns="http://www.w3.org/2000/svg">
    <rect x="1" y="1" width="42" height="56" rx="16" fill="#D6D8F5"/>
    <rect x="1" y="1" width="42" height="56" rx="16" stroke="#A1A7D3" stroke-width="2"/>
    <path d="M19.875 23.2969H21.8281C21.7656 24.0417 21.5573 24.7057 21.2031 25.2891C20.849 25.8672 20.3516 26.3229 19.7109 26.6562C19.0703 26.9896 18.2917 27.1562 17.375 27.1562C16.6719 27.1562 16.0391 27.0312 15.4766 26.7812C14.9141 26.526 14.4323 26.1667 14.0312 25.7031C13.6302 25.2344 13.3229 24.6693 13.1094 24.0078C12.901 23.3464 12.7969 22.6068 12.7969 21.7891V20.8438C12.7969 20.026 12.9036 19.2865 13.1172 18.625C13.3359 17.9635 13.6484 17.3984 14.0547 16.9297C14.4609 16.4557 14.9479 16.0938 15.5156 15.8438C16.0885 15.5938 16.7318 15.4688 17.4453 15.4688C18.3516 15.4688 19.1172 15.6354 19.7422 15.9688C20.3672 16.3021 20.8516 16.763 21.1953 17.3516C21.5443 17.9401 21.7578 18.6146 21.8359 19.375H19.8828C19.8307 18.8854 19.7161 18.4661 19.5391 18.1172C19.3672 17.7682 19.112 17.5026 18.7734 17.3203C18.4349 17.1328 17.9922 17.0391 17.4453 17.0391C16.9974 17.0391 16.6068 17.1224 16.2734 17.2891C15.9401 17.4557 15.6615 17.7005 15.4375 18.0234C15.2135 18.3464 15.0443 18.7448 14.9297 19.2188C14.8203 19.6875 14.7656 20.224 14.7656 20.8281V21.7891C14.7656 22.362 14.8151 22.8828 14.9141 23.3516C15.0182 23.8151 15.1745 24.2135 15.3828 24.5469C15.5964 24.8802 15.8672 25.138 16.1953 25.3203C16.5234 25.5026 16.9167 25.5938 17.375 25.5938C17.9323 25.5938 18.3828 25.5052 18.7266 25.3281C19.0755 25.151 19.3385 24.8932 19.5156 24.5547C19.6979 24.2109 19.8177 23.7917 19.875 23.2969ZM28.7266 14.8438H30.25C30.25 15.3073 30.1849 15.6901 30.0547 15.9922C29.9297 16.2891 29.7422 16.5339 29.4922 16.7266C29.2474 16.9141 28.9427 17.0651 28.5781 17.1797C28.2188 17.2943 27.8021 17.3984 27.3281 17.4922C26.8906 17.5859 26.4948 17.7344 26.1406 17.9375C25.7917 18.1354 25.4974 18.4141 25.2578 18.7734C25.0234 19.1276 24.8542 19.5833 24.75 20.1406C24.6458 20.6979 24.6146 21.3776 24.6562 22.1797V22.7109L23.1641 22.8438V22.3125C23.1641 21.3177 23.2552 20.4505 23.4375 19.7109C23.6198 18.9714 23.8776 18.349 24.2109 17.8438C24.5495 17.3333 24.9505 16.9271 25.4141 16.625C25.8828 16.3229 26.4036 16.1146 26.9766 16C27.3672 15.9167 27.6927 15.8333 27.9531 15.75C28.2135 15.6615 28.4062 15.5495 28.5312 15.4141C28.6615 15.2734 28.7266 15.0833 28.7266 14.8438ZM27.4062 19.0234C27.9688 19.0234 28.4688 19.1224 28.9062 19.3203C29.3438 19.513 29.7135 19.7839 30.0156 20.1328C30.3177 20.4818 30.5469 20.8932 30.7031 21.3672C30.8646 21.8411 30.9453 22.3568 30.9453 22.9141V23.0859C30.9453 23.6693 30.8594 24.2083 30.6875 24.7031C30.5156 25.1979 30.263 25.6302 29.9297 26C29.5964 26.3646 29.1875 26.651 28.7031 26.8594C28.224 27.0625 27.6745 27.1641 27.0547 27.1641C26.4401 27.1641 25.8906 27.0573 25.4062 26.8438C24.9219 26.6302 24.513 26.3333 24.1797 25.9531C23.8464 25.5677 23.5938 25.1172 23.4219 24.6016C23.25 24.0859 23.1641 23.5234 23.1641 22.9141V22.7422C23.1589 22.6328 23.1875 22.526 23.25 22.4219C23.3177 22.3177 23.3984 22.2057 23.4922 22.0859C23.5859 21.9661 23.6693 21.8281 23.7422 21.6719C24.0026 21.1458 24.3099 20.6849 24.6641 20.2891C25.0182 19.8932 25.4219 19.5833 25.875 19.3594C26.3333 19.1354 26.8438 19.0234 27.4062 19.0234ZM27.0391 20.5156C26.5703 20.5156 26.1875 20.6276 25.8906 20.8516C25.599 21.0703 25.3828 21.362 25.2422 21.7266C25.1068 22.0911 25.0391 22.487 25.0391 22.9141V23.0859C25.0391 23.4349 25.0781 23.7656 25.1562 24.0781C25.2344 24.3906 25.3516 24.6667 25.5078 24.9062C25.6693 25.1406 25.8776 25.3255 26.1328 25.4609C26.3932 25.5964 26.7005 25.6641 27.0547 25.6641C27.4141 25.6641 27.7188 25.5964 27.9688 25.4609C28.224 25.3255 28.4297 25.1406 28.5859 24.9062C28.7474 24.6667 28.8646 24.3906 28.9375 24.0781C29.0156 23.7656 29.0547 23.4349 29.0547 23.0859V22.9141C29.0547 22.5911 29.0156 22.2865 28.9375 22C28.8646 21.7135 28.7474 21.4609 28.5859 21.2422C28.4245 21.0182 28.2161 20.8411 27.9609 20.7109C27.7057 20.5807 27.3984 20.5156 27.0391 20.5156Z" fill="#4C548A"/>
</svg>
