<svg width="44" height="58" viewBox="0 0 44 58" fill="none" xmlns="http://www.w3.org/2000/svg">
    <rect x="1" y="1" width="42" height="56" rx="16" fill="#D6D8F5"/>
    <rect x="1" y="1" width="42" height="56" rx="16" stroke="#A1A7D3" stroke-width="2"/>
    <path d="M13.6328 15.625H15.5938V19.1484C15.5938 19.6849 15.6745 20.1068 15.8359 20.4141C15.9974 20.7161 16.2422 20.9297 16.5703 21.0547C16.9036 21.1797 17.3177 21.2422 17.8125 21.2422C18.0521 21.2422 18.3047 21.2318 18.5703 21.2109C18.8359 21.1901 19.1016 21.1615 19.3672 21.125C19.638 21.0833 19.8984 21.0365 20.1484 20.9844C20.3984 20.9271 20.6276 20.8646 20.8359 20.7969V22.3516C20.6328 22.4141 20.4089 22.474 20.1641 22.5312C19.9245 22.5885 19.6745 22.638 19.4141 22.6797C19.1536 22.7161 18.888 22.7448 18.6172 22.7656C18.3464 22.7865 18.0781 22.7969 17.8125 22.7969C16.9531 22.7969 16.2109 22.6745 15.5859 22.4297C14.9609 22.1797 14.4792 21.7865 14.1406 21.25C13.8021 20.7135 13.6328 20.013 13.6328 19.1484V15.625ZM20.3906 15.625H22.3516V27H20.3906V15.625ZM28.4375 18.5469V27H26.5469V18.5469H28.4375ZM31.2109 18.5469V20.0312H23.8203V18.5469H31.2109Z" fill="#4C548A"/>
</svg>
