<svg width="44" height="58" viewBox="0 0 44 58" fill="none" xmlns="http://www.w3.org/2000/svg">
    <rect x="1" y="1" width="42" height="56" rx="16" fill="#D6D8F5"/>
    <rect x="1" y="1" width="42" height="56" rx="16" stroke="#A1A7D3" stroke-width="2"/>
    <path d="M17.9219 21.8594H15.0234L15.0078 20.4297H17.5391C17.9661 20.4297 18.3281 20.3672 18.625 20.2422C18.9271 20.112 19.1562 19.9271 19.3125 19.6875C19.4688 19.4427 19.5469 19.1484 19.5469 18.8047C19.5469 18.4245 19.474 18.1146 19.3281 17.875C19.1823 17.6354 18.9583 17.4609 18.6562 17.3516C18.3594 17.2422 17.9792 17.1875 17.5156 17.1875H15.6172V27H13.6562V15.625H17.5156C18.1406 15.625 18.6979 15.6849 19.1875 15.8047C19.6823 15.9245 20.1016 16.112 20.4453 16.3672C20.7943 16.6172 21.0573 16.9349 21.2344 17.3203C21.4167 17.7057 21.5078 18.1641 21.5078 18.6953C21.5078 19.1641 21.3958 19.5938 21.1719 19.9844C20.9479 20.3698 20.6172 20.6849 20.1797 20.9297C19.7422 21.1745 19.1979 21.3203 18.5469 21.3672L17.9219 21.8594ZM17.8359 27H14.4062L15.2891 25.4453H17.8359C18.2786 25.4453 18.6484 25.3724 18.9453 25.2266C19.2422 25.0755 19.4635 24.8698 19.6094 24.6094C19.7604 24.3438 19.8359 24.0339 19.8359 23.6797C19.8359 23.3099 19.7708 22.9896 19.6406 22.7188C19.5104 22.4427 19.3047 22.2318 19.0234 22.0859C18.7422 21.9349 18.375 21.8594 17.9219 21.8594H15.7188L15.7344 20.4297H18.6016L19.0469 20.9688C19.6719 20.9896 20.1849 21.1276 20.5859 21.3828C20.9922 21.638 21.2943 21.9688 21.4922 22.375C21.6901 22.7812 21.7891 23.2188 21.7891 23.6875C21.7891 24.4115 21.6302 25.0182 21.3125 25.5078C21 25.9974 20.5495 26.3698 19.9609 26.625C19.3724 26.875 18.6641 27 17.8359 27ZM27.5 18.5469V27H25.6094V18.5469H27.5ZM30.2734 18.5469V20.0312H22.8828V18.5469H30.2734Z" fill="#4C548A"/>
</svg>
