<svg width="44" height="58" viewBox="0 0 44 58" fill="none" xmlns="http://www.w3.org/2000/svg">
    <rect x="1" y="1" width="42" height="56" rx="16" fill="#D6D8F5"/>
    <rect x="1" y="1" width="42" height="56" rx="16" stroke="#A1A7D3" stroke-width="2"/>
    <path d="M19.875 23.2969H21.8281C21.7656 24.0417 21.5573 24.7057 21.2031 25.2891C20.849 25.8672 20.3516 26.3229 19.7109 26.6562C19.0703 26.9896 18.2917 27.1562 17.375 27.1562C16.6719 27.1562 16.0391 27.0312 15.4766 26.7812C14.9141 26.526 14.4323 26.1667 14.0312 25.7031C13.6302 25.2344 13.3229 24.6693 13.1094 24.0078C12.901 23.3464 12.7969 22.6068 12.7969 21.7891V20.8438C12.7969 20.026 12.9036 19.2865 13.1172 18.625C13.3359 17.9635 13.6484 17.3984 14.0547 16.9297C14.4609 16.4557 14.9479 16.0938 15.5156 15.8438C16.0885 15.5938 16.7318 15.4688 17.4453 15.4688C18.3516 15.4688 19.1172 15.6354 19.7422 15.9688C20.3672 16.3021 20.8516 16.763 21.1953 17.3516C21.5443 17.9401 21.7578 18.6146 21.8359 19.375H19.8828C19.8307 18.8854 19.7161 18.4661 19.5391 18.1172C19.3672 17.7682 19.112 17.5026 18.7734 17.3203C18.4349 17.1328 17.9922 17.0391 17.4453 17.0391C16.9974 17.0391 16.6068 17.1224 16.2734 17.2891C15.9401 17.4557 15.6615 17.7005 15.4375 18.0234C15.2135 18.3464 15.0443 18.7448 14.9297 19.2188C14.8203 19.6875 14.7656 20.224 14.7656 20.8281V21.7891C14.7656 22.362 14.8151 22.8828 14.9141 23.3516C15.0182 23.8151 15.1745 24.2135 15.3828 24.5469C15.5964 24.8802 15.8672 25.138 16.1953 25.3203C16.5234 25.5026 16.9167 25.5938 17.375 25.5938C17.9323 25.5938 18.3828 25.5052 18.7266 25.3281C19.0755 25.151 19.3385 24.8932 19.5156 24.5547C19.6979 24.2109 19.8177 23.7917 19.875 23.2969ZM25.3125 20.1719V30.25H23.4297V18.5469H25.1641L25.3125 20.1719ZM30.8203 22.6953V22.8594C30.8203 23.474 30.7474 24.0443 30.6016 24.5703C30.4609 25.0911 30.25 25.5469 29.9688 25.9375C29.6927 26.3229 29.3516 26.6224 28.9453 26.8359C28.5391 27.0495 28.0703 27.1562 27.5391 27.1562C27.013 27.1562 26.5521 27.0599 26.1562 26.8672C25.7656 26.6693 25.4349 26.3906 25.1641 26.0312C24.8932 25.6719 24.6745 25.25 24.5078 24.7656C24.3464 24.276 24.2318 23.7396 24.1641 23.1562V22.5234C24.2318 21.9036 24.3464 21.3411 24.5078 20.8359C24.6745 20.3307 24.8932 19.8958 25.1641 19.5312C25.4349 19.1667 25.7656 18.8854 26.1562 18.6875C26.5469 18.4896 27.0026 18.3906 27.5234 18.3906C28.0547 18.3906 28.526 18.4948 28.9375 18.7031C29.349 18.9062 29.6953 19.1979 29.9766 19.5781C30.2578 19.9531 30.4688 20.4062 30.6094 20.9375C30.75 21.4635 30.8203 22.0495 30.8203 22.6953ZM28.9375 22.8594V22.6953C28.9375 22.3047 28.901 21.9427 28.8281 21.6094C28.7552 21.2708 28.6406 20.974 28.4844 20.7188C28.3281 20.4635 28.1276 20.2656 27.8828 20.125C27.6432 19.9792 27.3542 19.9062 27.0156 19.9062C26.6823 19.9062 26.3958 19.9635 26.1562 20.0781C25.9167 20.1875 25.7161 20.3411 25.5547 20.5391C25.3932 20.737 25.2682 20.9688 25.1797 21.2344C25.0911 21.4948 25.0286 21.7786 24.9922 22.0859V23.6016C25.0547 23.9766 25.1615 24.3203 25.3125 24.6328C25.4635 24.9453 25.6771 25.1953 25.9531 25.3828C26.2344 25.5651 26.5938 25.6562 27.0312 25.6562C27.3698 25.6562 27.6589 25.5833 27.8984 25.4375C28.138 25.2917 28.3333 25.0911 28.4844 24.8359C28.6406 24.5755 28.7552 24.276 28.8281 23.9375C28.901 23.599 28.9375 23.2396 28.9375 22.8594Z" fill="#4C548A"/>
</svg>
