<svg width="26" height="25" viewBox="0 0 26 25" fill="none" xmlns="http://www.w3.org/2000/svg">
    <g clip-path="url(#clip0_309_122)">
        <path d="M24.4584 11.4584H14.0417V1.04165C14.0417 0.466358 13.5753 0 13 0C12.4247 0 11.9584 0.466358 11.9584 1.04165V11.4583H1.54165C0.966358 11.4584 0.5 11.9247 0.5 12.5C0.5 13.0753 0.966358 13.5417 1.54165 13.5417H11.9583V23.9583C11.9583 24.5336 12.4247 25 13 25C13.5753 25 14.0416 24.5336 14.0416 23.9583V13.5417H24.4583C25.0336 13.5417 25.5 13.0753 25.5 12.5C25.5 11.9247 25.0337 11.4584 24.4584 11.4584Z" fill="#4C548A"/>
    </g>
    <defs>
        <clipPath id="clip0_309_122">
            <rect width="25" height="25" fill="white" transform="translate(0.5)"/>
        </clipPath>
    </defs>
</svg>
