<svg width="15" height="15" viewBox="0 0 15 15" fill="none" xmlns="http://www.w3.org/2000/svg">
    <g clip-path="url(#clip0_263_372)">
        <path d="M5 7.5H3.75C3.06063 7.5 2.5 8.06063 2.5 8.75V10C2.5 10.6894 3.06063 11.25 3.75 11.25H5C5.68937 11.25 6.25 10.6894 6.25 10V8.75C6.25 8.06063 5.68937 7.5 5 7.5ZM3.75 10V8.75H5V10H3.75ZM11.875 1.25H11.25V0.625C11.25 0.28 10.9706 0 10.625 0C10.2794 0 10 0.28 10 0.625V1.25H5V0.625C5 0.28 4.72062 0 4.375 0C4.02938 0 3.75 0.28 3.75 0.625V1.25H3.125C1.40188 1.25 0 2.65188 0 4.375V11.875C0 13.5981 1.40188 15 3.125 15H11.875C13.5981 15 15 13.5981 15 11.875V4.375C15 2.65188 13.5981 1.25 11.875 1.25ZM3.125 2.5H11.875C12.9087 2.5 13.75 3.34125 13.75 4.375V5H1.25V4.375C1.25 3.34125 2.09125 2.5 3.125 2.5ZM11.875 13.75H3.125C2.09125 13.75 1.25 12.9087 1.25 11.875V6.25H13.75V11.875C13.75 12.9087 12.9087 13.75 11.875 13.75Z" fill="#A1A7D3"/>
    </g>
    <defs>
        <clipPath id="clip0_263_372">
            <rect width="15" height="15" fill="white"/>
        </clipPath>
    </defs>
</svg>
