<svg width="25" height="25" viewBox="0 0 25 25" fill="none" xmlns="http://www.w3.org/2000/svg">
    <g clip-path="url(#clip0_170_191)">
        <path d="M16.9771 8.63333L18.4396 10.1177L12.4052 16.0625C12.0021 16.4656 11.4719 16.6667 10.9396 16.6667C10.4073 16.6667 9.87187 16.4635 9.46458 16.0573L6.56667 13.249L8.01771 11.7521L10.9271 14.5719L16.9771 8.63333ZM25 12.5C25 19.3927 19.3927 25 12.5 25C5.60729 25 0 19.3927 0 12.5C0 5.60729 5.60729 0 12.5 0C19.3927 0 25 5.60729 25 12.5ZM22.9167 12.5C22.9167 6.75625 18.2437 2.08333 12.5 2.08333C6.75625 2.08333 2.08333 6.75625 2.08333 12.5C2.08333 18.2437 6.75625 22.9167 12.5 22.9167C18.2437 22.9167 22.9167 18.2437 22.9167 12.5Z" fill="#4C548A"/>
    </g>
    <defs>
        <clipPath id="clip0_170_191">
            <rect width="25" height="25" fill="white"/>
        </clipPath>
    </defs>
</svg>
