<svg width="25" height="25" viewBox="0 0 25 25" fill="none" xmlns="http://www.w3.org/2000/svg">
    <g clip-path="url(#clip0_267_881)">
        <path d="M12.5 0C10.0277 0 7.61099 0.733112 5.55538 2.10663C3.49976 3.48015 1.89761 5.43238 0.951511 7.71646C0.00541608 10.0005 -0.242126 12.5139 0.24019 14.9386C0.722505 17.3634 1.91301 19.5907 3.66117 21.3388C5.40933 23.087 7.63661 24.2775 10.0614 24.7598C12.4861 25.2421 14.9995 24.9946 17.2835 24.0485C19.5676 23.1024 21.5199 21.5002 22.8934 19.4446C24.2669 17.389 25 14.9723 25 12.5C25 9.18479 23.683 6.00537 21.3388 3.66117C18.9946 1.31696 15.8152 0 12.5 0ZM12.5 22.9167C10.4398 22.9167 8.42583 22.3057 6.71282 21.1611C4.9998 20.0165 3.66467 18.3897 2.87626 16.4863C2.08785 14.5829 1.88156 12.4884 2.28349 10.4678C2.68542 8.44718 3.67751 6.5911 5.13431 5.1343C6.59111 3.67751 8.44718 2.68542 10.4678 2.28349C12.4885 1.88156 14.5829 2.08784 16.4863 2.87626C18.3897 3.66467 20.0165 4.9998 21.1611 6.71281C22.3057 8.42582 22.9167 10.4398 22.9167 12.5C22.9167 15.2627 21.8192 17.9122 19.8657 19.8657C17.9122 21.8192 15.2627 22.9167 12.5 22.9167Z" fill="#4C548A"/>
    </g>
    <defs>
        <clipPath id="clip0_267_881">
            <rect width="25" height="25" fill="white"/>
        </clipPath>
    </defs>
</svg>
