<svg width="20" height="20" viewBox="0 0 20 20" fill="none" xmlns="http://www.w3.org/2000/svg">
    <g clip-path="url(#clip0_263_369)">
        <path d="M17.3827 12.7758L14.2394 17.905C13.8942 18.4717 13.4243 18.9521 12.8654 19.3098C12.3066 19.6675 11.6735 19.893 11.0144 19.9692C10.8407 19.9898 10.6659 20 10.491 20C9.59558 19.9988 8.7224 19.7208 7.99102 19.2042C7.23524 19.7704 6.30164 20.0471 5.35937 19.9843C4.4171 19.9215 3.5285 19.5232 2.85457 18.8617C2.18063 18.2002 1.76595 17.3191 1.68566 16.3782C1.60536 15.4372 1.86476 14.4986 2.41686 13.7325L1.32103 12.6383C0.853105 12.1704 0.497122 11.6026 0.279735 10.9776C0.062348 10.3526 -0.0108081 9.68643 0.0657452 9.02912C0.142299 8.3718 0.366577 7.74032 0.721785 7.18197C1.07699 6.62363 1.55392 6.15288 2.11686 5.80499L6.92269 2.83332C8.22453 1.99897 9.7555 1.59445 11.2996 1.67683C12.8436 1.75922 14.3229 2.32435 15.5285 3.29249L16.911 1.90999C16.9879 1.83039 17.0799 1.76691 17.1815 1.72324C17.2832 1.67956 17.3925 1.65657 17.5032 1.65561C17.6138 1.65465 17.7236 1.67573 17.826 1.71764C17.9284 1.75954 18.0214 1.82141 18.0997 1.89966C18.1779 1.9779 18.2398 2.07094 18.2817 2.17336C18.3236 2.27577 18.3447 2.3855 18.3437 2.49615C18.3428 2.6068 18.3198 2.71615 18.2761 2.81782C18.2324 2.91949 18.169 3.01145 18.0894 3.08832L16.7085 4.46999C17.6346 5.63019 18.1935 7.04034 18.3136 8.51998C18.4337 9.99962 18.1096 11.4814 17.3827 12.7758ZM6.72102 18.0392L3.62186 14.9392C3.37967 15.3723 3.28626 15.8729 3.35596 16.3642C3.42565 16.8556 3.6546 17.3105 4.00769 17.6592C4.36388 17.9975 4.81692 18.216 5.30344 18.2842C5.78995 18.3523 6.2856 18.2666 6.72102 18.0392ZM14.9885 5.03915C14.0631 4.10485 12.845 3.51667 11.5379 3.37302C10.2307 3.22937 8.91389 3.53895 7.80769 4.24999L2.99353 7.22165C2.64439 7.43746 2.34861 7.72946 2.12832 8.07578C1.90804 8.4221 1.76896 8.81378 1.7215 9.22147C1.67405 9.62916 1.71945 10.0423 1.8543 10.43C1.98915 10.8176 2.20996 11.1698 2.50019 11.46L8.57519 17.5358C8.86589 17.8268 9.21879 18.0482 9.60735 18.1832C9.99591 18.3181 10.41 18.3633 10.8185 18.3151C11.2271 18.267 11.6193 18.1269 11.9659 17.9053C12.3124 17.6837 12.6043 17.3864 12.8194 17.0358L15.9485 11.9317C16.5597 10.8339 16.7966 9.56697 16.6234 8.32257C16.4502 7.07816 15.8763 5.92407 14.9885 5.03499V5.03915ZM16.0544 20C15.8784 20.0003 15.7068 19.9449 15.5642 19.8417C15.4217 19.7385 15.3154 19.5929 15.2608 19.4256C15.2061 19.2583 15.2058 19.078 15.2598 18.9105C15.3139 18.7431 15.4197 18.597 15.5619 18.4933C17.021 17.3963 18.0086 15.7855 18.3244 13.9875C18.3465 13.8792 18.3899 13.7765 18.4522 13.6852C18.5144 13.5939 18.5941 13.5159 18.6868 13.4557C18.7794 13.3955 18.8831 13.3543 18.9918 13.3346C19.1005 13.3148 19.2121 13.3169 19.32 13.3407C19.4279 13.3644 19.53 13.4094 19.6203 13.473C19.7107 13.5365 19.7875 13.6175 19.8463 13.711C19.9051 13.8045 19.9447 13.9088 19.9628 14.0178C19.981 14.1268 19.9772 14.2383 19.9519 14.3458C19.5435 16.5389 18.328 18.4992 16.5452 19.84C16.4026 19.9439 16.2308 20 16.0544 20ZM0.833525 4.78249C0.679611 4.7818 0.528893 4.7385 0.398084 4.65739C0.267275 4.57628 0.161486 4.46052 0.0924455 4.32296C0.0234052 4.1854 -0.00618824 4.0314 0.00694651 3.87805C0.0200813 3.72469 0.075431 3.57797 0.166859 3.45415C1.52601 1.63798 3.52671 0.408589 5.76103 0.0166535C5.97762 -0.0275492 6.2029 0.0160999 6.38731 0.137999C6.57172 0.259897 6.70016 0.45006 6.74436 0.666654C6.78856 0.883247 6.74491 1.10853 6.62301 1.29294C6.50111 1.47735 6.31095 1.60578 6.09436 1.64999C4.25934 1.95301 2.61289 2.95467 1.50019 4.44499C1.42301 4.54925 1.32255 4.63405 1.20681 4.69265C1.09107 4.75124 0.963249 4.782 0.833525 4.78249Z" fill="#4C548A"/>
    </g>
    <defs>
        <clipPath id="clip0_263_369">
            <rect width="20" height="20" fill="white"/>
        </clipPath>
    </defs>
</svg>
