<svg width="20" height="20" viewBox="0 0 20 20" fill="none" xmlns="http://www.w3.org/2000/svg">
    <g clip-path="url(#clip0_170_224)">
        <path d="M13.3614 17.8499C12.7572 19.1557 11.4381 19.9999 9.99972 19.9999C8.08305 19.9999 6.50139 18.5357 6.31639 16.6666H5.04222C3.75805 16.6666 2.56222 16.0924 1.75972 15.0907C0.958053 14.0916 0.656387 12.7991 0.933887 11.5457L2.03639 7.29074C2.15222 6.84574 2.60555 6.57824 3.05222 6.69324C3.49805 6.80824 3.76472 7.26324 3.64972 7.70907L2.55472 11.9349C2.39389 12.6641 2.57555 13.4449 3.06055 14.0482C3.54555 14.6532 4.26805 14.9999 5.04305 14.9999H10.8339C11.2939 14.9999 11.6672 15.3732 11.6672 15.8332C11.6672 16.2932 11.2939 16.6666 10.8339 16.6666H7.99972C8.17389 17.6132 9.00472 18.3332 10.0006 18.3332C10.7914 18.3332 11.5172 17.8691 11.8497 17.1499C12.0431 16.7324 12.5406 16.5516 12.9556 16.7432C13.3731 16.9366 13.5547 17.4316 13.3614 17.8499ZM19.7556 19.7557C19.5931 19.9182 19.3797 19.9999 19.1664 19.9999C18.9531 19.9999 18.7397 19.9182 18.5772 19.7557L0.243887 1.4224C-0.0819466 1.09657 -0.0819466 0.569903 0.243887 0.24407C0.56972 -0.0817635 1.09639 -0.0817635 1.42222 0.24407L3.97639 2.79824C5.45222 1.0324 7.64805 -9.68513e-05 9.99972 -9.68513e-05C13.5147 -9.68513e-05 16.6272 2.3649 17.5681 5.75157L19.0156 11.3466C19.3656 12.6091 19.1089 13.9474 18.3081 15.0032C17.9956 15.4141 17.6214 15.7557 17.2006 16.0216L19.7556 18.5766C20.0814 18.9024 20.0814 19.4291 19.7556 19.7549V19.7557ZM5.16139 3.98324L15.9706 14.7924C16.3656 14.6216 16.7106 14.3516 16.9797 13.9974C17.4639 13.3591 17.6197 12.5507 17.4056 11.7791L15.9589 6.18407C15.2214 3.53074 12.7697 1.6674 10.0006 1.6674C8.09555 1.6674 6.32305 2.5249 5.16222 3.98407L5.16139 3.98324Z" fill="#4C548A"/>
    </g>
    <defs>
        <clipPath id="clip0_170_224">
            <rect width="20" height="20" fill="white"/>
        </clipPath>
    </defs>
</svg>
