<svg width="10" height="10" viewBox="0 0 10 10" fill="none" xmlns="http://www.w3.org/2000/svg">
    <g clip-path="url(#clip0_261_236)">
        <path d="M9.52209 0.441693C9.23882 0.158858 8.85489 0 8.45459 0C8.05429 0 7.67036 0.158858 7.38709 0.441693L0.610423 7.21836C0.416361 7.41133 0.262491 7.64087 0.157714 7.89369C0.0529371 8.14651 -0.000665823 8.4176 6.24218e-06 8.69128V9.54669C6.24218e-06 9.6572 0.0439049 9.76318 0.122045 9.84132C0.200185 9.91946 0.306166 9.96336 0.416673 9.96336H1.27209C1.54574 9.96413 1.81683 9.91062 2.06965 9.80591C2.32248 9.7012 2.55203 9.54738 2.74501 9.35336L9.52209 2.57628C9.8048 2.29302 9.96357 1.90918 9.96357 1.50898C9.96357 1.10879 9.8048 0.724945 9.52209 0.441693ZM2.15584 8.76419C1.92084 8.99763 1.60332 9.12907 1.27209 9.13003H0.83334V8.69128C0.832918 8.52707 0.865071 8.36441 0.927938 8.21271C0.990806 8.06102 1.08314 7.9233 1.19959 7.80753L6.34251 2.66461L7.30084 3.62294L2.15584 8.76419ZM8.93251 1.98711L7.88834 3.03169L6.93001 2.07544L7.97459 1.03086C8.03751 0.968071 8.11219 0.918292 8.19435 0.884363C8.27652 0.850435 8.36456 0.833022 8.45345 0.833119C8.54234 0.833216 8.63035 0.85082 8.71244 0.884927C8.79453 0.919034 8.86909 0.968976 8.93188 1.0319C8.99467 1.09483 9.04445 1.1695 9.07838 1.25167C9.11231 1.33383 9.12972 1.42187 9.12962 1.51076C9.12953 1.59966 9.11192 1.68766 9.07781 1.76975C9.04371 1.85184 8.99376 1.9264 8.93084 1.98919L8.93251 1.98711Z" fill="#4C548A"/>
    </g>
    <defs>
        <clipPath id="clip0_261_236">
            <rect width="10" height="10" fill="white"/>
        </clipPath>
    </defs>
</svg>
